<svg aria-hidden="true" style="position: absolute; width: 0; height: 0; overflow: hidden;" version="1.1" xmlns="http://www.w3.org/2000/svg" xmlns:xlink="http://www.w3.org/1999/xlink">
<defs>
<symbol id="icon-clear" viewBox="0 0 26 32">
<path fill="#d98326" style="fill: var(--color1, #d98326)" d="M14.545 10.473l-1.454-1.455-5.818 5.818-5.818-5.818-1.455 1.455 5.818 5.818-5.818 5.818 1.455 1.455 5.818-5.818 5.818 5.818 1.454-1.455-5.818-5.818 5.818-5.818zM23.273 0h-14.545c-1.6 0-2.909 1.309-2.909 2.909v4.364h2.909v-2.909h14.545v23.273h-14.545v-2.909h-2.909v4.364c0 1.6 1.309 2.909 2.909 2.909h14.545c1.6 0 2.909-1.309 2.909-2.909v-26.182c0-1.6-1.309-2.909-2.909-2.909z"></path>
</symbol>
<symbol id="icon-empty" viewBox="0 0 32 32">
<path fill="#737373" style="fill: var(--color2, #737373)" d="M16 0c-8.832 0-16 7.168-16 16s7.168 16 16 16c8.832 0 16-7.168 16-16s-7.168-16-16-16zM16 28.8c-7.072 0-12.8-5.728-12.8-12.8s5.728-12.8 12.8-12.8c7.072 0 12.8 5.728 12.8 12.8s-5.728 12.8-12.8 12.8z"></path>
</symbol>
<symbol id="icon-completed" viewBox="0 0 32 32">
<path fill="#d98326" style="fill: var(--color1, #d98326)" d="M23.344 8.928l-10.544 10.544-5.744-5.728-2.256 2.256 8 8 12.8-12.8-2.256-2.272zM16 0c-8.832 0-16 7.168-16 16s7.168 16 16 16c8.832 0 16-7.168 16-16s-7.168-16-16-16zM16 28.8c-7.072 0-12.8-5.728-12.8-12.8s5.728-12.8 12.8-12.8c7.072 0 12.8 5.728 12.8 12.8s-5.728 12.8-12.8 12.8z"></path>
</symbol>
<symbol id="icon-delete" viewBox="0 0 27 32">
<path fill="#b30b04" style="fill: var(--color3, #b30b04)" d="M2.667 28.444c0 1.956 1.6 3.556 3.556 3.556h14.222c1.956 0 3.556-1.6 3.556-3.556v-21.333h-21.333v21.333zM6.222 10.667h14.222v17.778h-14.222v-17.778zM19.556 1.778l-1.778-1.778h-8.889l-1.778 1.778h-6.222v3.556h24.889v-3.556h-6.222z"></path>
</symbol>
</defs>
</svg>
